<?xml version="1.0" standalone="no"?><!DOCTYPE svg PUBLIC "-//W3C//DTD SVG 1.1//EN" "http://www.w3.org/Graphics/SVG/1.1/DTD/svg11.dtd"><svg t="1747042920879" class="icon" viewBox="0 0 1024 1024" version="1.1" xmlns="http://www.w3.org/2000/svg" p-id="5122" width="64" height="64" xmlns:xlink="http://www.w3.org/1999/xlink"><path d="M93.632 920.68h845.016v73.124H93.632z" fill="#F4F6F9" p-id="5123"></path><path d="M917.336 959.992c0 11.812 9.532 21.344 21.312 21.344V938.68c-11.78 0-21.312 9.562-21.312 21.312z" fill="#E5E8EC" p-id="5124"></path><path d="M125.07 938.898h813.578c11.78 0 21.342-9.532 21.342-21.344v-896.2c0-11.782-9.562-21.344-21.342-21.344H149.352c-47.124 0-85.342 38.218-85.342 85.342v874.642c0 35.374 28.654 63.998 63.998 63.998h810.64c11.78 0 21.342-9.562 21.342-21.312 0-11.812-9.562-21.342-21.342-21.342H128.008c-11.75 0-21.344-9.562-21.344-21.344 0-10.752 8.032-19.658 18.406-21.096z" fill="#EC5564" p-id="5125"></path><path d="M341.566 725.34V501.906l-13.124-5.468c-50.342-21-82.904-69.842-82.904-124.374 0-74.28 60.436-134.716 134.716-134.716 46.498 0 47.248-33.062 72.124 6.312l49.654-24 28.344 4.688c24.874-39.406 67.436 13 113.936 13 74.28 0 134.684 60.436 134.684 134.716 0 54.532-32.532 103.374-82.874 124.374l-13.124 5.468V725.34H341.566z" fill="#E5E8EC" p-id="5126"></path><path d="M644.31 216.006a155.81 155.81 0 0 0-42.438 5.876c-24.968-18.75-55.968-29.876-89.592-29.876s-64.654 11.124-89.592 29.876a155.872 155.872 0 0 0-42.436-5.876c-86.188 0-156.03 69.874-156.03 156.058 0 64.906 39.624 120.53 95.998 144.06v230.558h384.086V516.124c56.404-23.532 96.03-79.156 96.03-144.06 0.002-86.186-69.84-156.058-156.026-156.058z m43.594 260.744l-26.25 10.938v216.31h-0.032c0-11.75-9.562-21.312-21.344-21.312s-21.344 9.562-21.344 21.312h-21.312c0-11.75-9.562-21.312-21.344-21.312s-21.344 9.562-21.344 21.312h-21.31c0-11.75-9.562-21.312-21.344-21.312s-21.344 9.562-21.344 21.312h-21.31c0-11.75-9.562-21.312-21.344-21.312s-21.344 9.562-21.344 21.312h-21.312c0-11.75-9.562-21.312-21.344-21.312-11.78 0-21.342 9.562-21.342 21.312h-0.032V487.688l-26.25-10.938c-42.376-17.686-69.78-58.78-69.78-104.686 0-62.53 50.842-113.374 113.374-113.374 2.5 0 4.998 0.094 7.466 0.25-15.03 22.688-24.03 49.718-24.716 78.842a19.186 19.186 0 0 0-0.344 3.562c0 11.782 9.562 21.342 21.342 21.342 11.782 0 21.344-9.562 21.344-21.342h0.282c0-58.812 47.844-106.654 106.654-106.654 57.874 0 105.092 46.312 106.592 103.842-0.124 0.938-0.218 1.844-0.218 2.812 0 11.782 9.562 21.342 21.344 21.342s21.344-9.562 21.344-21.342h0.282a148.67 148.67 0 0 0-24.812-82.406 119.604 119.604 0 0 1 7.5-0.25c62.498 0 113.372 50.844 113.372 113.374-0.002 45.908-27.406 87.002-69.78 104.688z" fill="#CBD0D8" p-id="5127"></path><path d="M448.002 448c0-11.782-9.562-21.312-21.344-21.312S405.346 436.22 405.346 448v106.688c0 11.78 9.532 21.31 21.312 21.31s21.344-9.532 21.344-21.31V448zM533.344 448c0-11.782-9.562-21.312-21.344-21.312S490.656 436.22 490.656 448v106.688c0 11.78 9.562 21.31 21.344 21.31s21.344-9.532 21.344-21.31V448zM618.654 448c0-11.782-9.532-21.312-21.312-21.312S575.998 436.22 575.998 448v106.688c0 11.78 9.562 21.31 21.344 21.31s21.312-9.532 21.312-21.31V448z" fill="#CBD0D8" p-id="5128"></path></svg>